<svg xmlns="http://www.w3.org/2000/svg" width="398.5mm" height="300.0mm" viewBox="0 0 3985 3000">
<!-- S7 fusion2 engrave strokes, layer 1 (0 = back). 1 unit = 0.1 mm. Stroke = engrave line. -->
<g fill="none" stroke="#000" stroke-width="3.0" stroke-linecap="round" stroke-linejoin="round">
<path d="M1491 1488 L1487 1490 L1472 1488 L1465 1481"/>
<path d="M2117 1579 L2111 1579 L2100 1586 L2095 1586 L2086 1600 L2076 1602"/>
<path d="M2448 1375 L2444 1361 L2436 1354 L2423 1354 L2420 1357 L2420 1363"/>
<path d="M1980 1180 L1981 1178 L1979 1167 L1979 1154 L1981 1146"/>
<path d="M2464 1374 L2471 1380 L2477 1388 L2490 1387 L2492 1385"/>
<path d="M1495 1147 L1490 1153 L1488 1167"/>
<path d="M2152 919 L2159 904 L2162 901 L2167 900 L2169 902 L2169 916 L2173 926 L2174 936"/>
<path d="M2315 1345 L2311 1349 L2311 1352 L2322 1384"/>
<path d="M2213 1493 L2211 1485 L2212 1474 L2214 1470"/>
<path d="M1671 979 L1681 976 L1689 976 L1692 978"/>
<path d="M1671 979 L1671 990 L1674 1008"/>
<path d="M1666 1317 L1671 1311 L1675 1309 L1682 1309 L1687 1315 L1690 1322 L1689 1324"/>
<path d="M1486 1015 L1493 999 L1500 996 L1514 1002 L1527 1016 L1530 1016"/>
<path d="M1722 1069 L1735 1072 L1740 1077 L1742 1085"/>
<path d="M1514 1438 L1505 1436 L1489 1441 L1463 1459"/>
<path d="M2058 849 L2043 844 L2033 835 L2023 835"/>
<path d="M1879 880 L1887 881 L1893 884 L1903 883 L1909 880 L1914 875 L1917 861"/>
<path d="M2295 1168 L2298 1176 L2304 1182 L2309 1184"/>
<path d="M1613 1287 L1616 1291 L1621 1304 L1626 1310"/>
<path d="M2175 937 L2180 938 L2190 946 L2192 956 L2189 959 L2180 958 L2170 946 L2169 941 L2167 939"/>
<path d="M2093 1658 L2095 1655 L2095 1643 L2093 1638 L2092 1625 L2090 1620 L2085 1619"/>
<path d="M1642 1481 L1637 1496 L1623 1508 L1614 1508 L1611 1512 L1612 1516"/>
<path d="M2163 985 L2155 1001 L2152 1014 L2149 1020 L2149 1024"/>
<path d="M1420 1360 L1416 1371 L1411 1376 L1400 1382 L1392 1384"/>
<path d="M2118 1644 L2118 1619 L2131 1609"/>
<path d="M1425 1508 L1448 1511 L1462 1501"/>
<path d="M2371 1544 L2375 1532 L2378 1528 L2383 1526"/>
<path d="M1677 911 L1690 910 L1704 914 L1711 923 L1713 933 L1711 937"/>
<path d="M1351 1353 L1352 1343 L1350 1341 L1335 1339"/>
<path d="M2398 1432 L2387 1429 L2377 1431"/>
<path d="M2076 1167 L2075 1161 L2069 1153 L2060 1147 L2056 1147"/>
<path d="M1805 992 L1803 995 L1799 997 L1792 997 L1787 992"/>
<path d="M1995 1006 L1996 993 L1993 985"/>
<path d="M2310 1087 L2304 1078 L2300 1075 L2284 1082"/>
<path d="M2186 897 L2187 910 L2189 916"/>
<path d="M2377 1184 L2380 1190 L2384 1194 L2386 1194 L2394 1186 L2395 1181 L2392 1176 L2387 1175 L2377 1183"/>
<path d="M1732 1498 L1739 1504 L1739 1508 L1742 1511 L1742 1515 L1747 1521"/>
<path d="M1410 1457 L1415 1447 L1426 1438"/>
<path d="M1684 1220 L1684 1225 L1687 1231 L1689 1242"/>
<path d="M1711 944 L1711 953 L1700 964 L1693 966 L1687 965 L1680 960 L1679 956"/>
<path d="M2042 1196 L2050 1200 L2062 1203"/>
<path d="M1549 1162 L1555 1160 L1573 1159"/>
<path d="M1887 940 L1891 938 L1915 944"/>
<path d="M1427 1382 L1410 1386 L1392 1397"/>
<path d="M1786 1189 L1781 1183 L1779 1176 L1780 1169 L1786 1160"/>
<path d="M1772 999 L1772 979"/>
<path d="M2353 1099 L2358 1080"/>
<path d="M1845 1091 L1833 1092 L1824 1099 L1820 1100 L1813 1108 L1813 1117"/>
<path d="M1683 1102 L1686 1097 L1690 1094 L1699 1092 L1705 1097 L1709 1107 L1710 1114 L1712 1116"/>
<path d="M1683 1102 L1692 1114 L1690 1118 L1684 1120"/>
<path d="M2357 1550 L2361 1558 L2367 1559 L2372 1564 L2376 1574"/>
<path d="M2115 1135 L2111 1136 L2095 1134 L2091 1140"/>
<path d="M1917 1120 L1914 1125 L1909 1148"/>
<path d="M2113 837 L2113 848 L2110 852 L2104 854 L2101 853 L2096 846 L2098 839 L2104 834"/>
<path d="M1939 1084 L1932 1088 L1926 1094 L1919 1112"/>
<path d="M2401 1508 L2401 1496 L2399 1485"/>
<path d="M1719 969 L1732 947"/>
<path d="M1376 1401 L1378 1401 L1382 1405 L1381 1423"/>
<path d="M1540 1494 L1535 1495 L1532 1498 L1530 1503 L1530 1509"/>
<path d="M1387 1282 L1382 1277 L1381 1269 L1383 1264 L1387 1260 L1394 1257 L1408 1256"/>
<path d="M1624 1377 L1622 1368 L1616 1355 L1616 1351"/>
<path d="M2409 1028 L2400 1038 L2398 1045 L2389 1054 L2387 1058"/>
<path d="M2415 1187 L2407 1157"/>
<path d="M2082 899 L2078 902 L2074 902 L2066 906 L2055 915 L2045 926 L2042 937"/>
<path d="M1436 1142 L1433 1140 L1431 1135 L1430 1118 L1434 1108 L1442 1102"/>
<path d="M2043 1059 L2035 1054 L2032 1047 L2032 1039"/>
<path d="M2464 1241 L2468 1244 L2472 1258 L2477 1267"/>
<path d="M1817 1077 L1816 1081 L1809 1089 L1801 1089"/>
<path d="M2178 1324 L2175 1308 L2173 1304 L2167 1299 L2156 1299 L2147 1305 L2149 1321"/>
<path d="M1598 1295 L1591 1298 L1586 1305 L1587 1314 L1589 1316 L1595 1315"/>
<path d="M1591 1275 L1589 1270 L1589 1246"/>
<path d="M2294 1117 L2296 1115 L2296 1096 L2300 1087"/>
<path d="M1747 1007 L1769 1010 L1771 1007 L1771 1001"/>
<path d="M1697 1182 L1714 1181 L1726 1191"/>
<path d="M2303 1290 L2300 1283 L2291 1271"/>
<path d="M2207 1201 L2218 1201 L2232 1205"/>
<path d="M1808 1709 L1811 1728"/>
<path d="M1328 1338 L1327 1334 L1321 1328 L1309 1328 L1300 1336 L1300 1342 L1304 1352"/>
<path d="M2283 1083 L2283 1101 L2287 1115 L2290 1118"/>
<path d="M1457 1384 L1461 1384 L1471 1380 L1481 1379"/>
<path d="M1906 1061 L1901 1074 L1893 1079"/>
<path d="M2174 1099 L2179 1108 L2182 1124 L2189 1125 L2192 1122"/>
<path d="M2513 1374 L2508 1369 L2508 1363 L2513 1359 L2520 1359 L2524 1361 L2530 1369 L2531 1379 L2529 1381"/>
<path d="M1893 1106 L1917 1112"/>
<path d="M2083 926 L2078 923 L2066 926 L2061 931 L2058 937"/>
<path d="M2264 939 L2252 943 L2247 947 L2236 951"/>
<path d="M1392 1462 L1388 1466 L1384 1467 L1380 1466 L1378 1463 L1378 1458 L1383 1449 L1381 1425"/>
<path d="M1660 1134 L1653 1137 L1644 1146 L1643 1149"/>
<path d="M2117 1178 L2106 1180 L2101 1178 L2094 1171"/>
<path d="M2134 1286 L2130 1282 L2130 1274 L2134 1267 L2145 1259 L2153 1258 L2157 1261 L2157 1270 L2155 1272 L2155 1277"/>
<path d="M2262 1127 L2257 1132 L2249 1150"/>
<path d="M2019 1015 L2019 1010 L2022 1004 L2022 994 L2016 986 L2013 985 L2009 988 L2009 998"/>
<path d="M1451 1372 L1448 1366 L1446 1355 L1446 1343 L1452 1331"/>
<path d="M2310 1088 L2309 1096 L2312 1109 L2311 1124 L2317 1134"/>
<path d="M2264 1116 L2258 1099 L2259 1095"/>
<path d="M2399 1149 L2400 1134 L2398 1123"/>
<path d="M2399 1149 L2388 1156 L2380 1159 L2367 1161 L2361 1160"/>
<path d="M2161 1059 L2138 1038"/>
<path d="M2217 1073 L2222 1081 L2231 1090 L2231 1093"/>
<path d="M1992 1596 L1992 1608 L1998 1622"/>
<path d="M1925 1065 L1923 1072 L1913 1082 L1907 1092"/>
<path d="M1834 930 L1835 925 L1839 921 L1844 921 L1849 924 L1854 930 L1853 938"/>
<path d="M2318 1326 L2327 1326 L2332 1324 L2342 1314 L2344 1310 L2344 1300 L2340 1296 L2330 1294"/>
<path d="M2166 1447 L2175 1444 L2183 1437 L2183 1427 L2177 1415 L2176 1403"/>
<path d="M1376 1383 L1375 1376 L1377 1371 L1377 1362 L1371 1358"/>
<path d="M1417 1199 L1430 1199 L1438 1193"/>
<path d="M1859 916 L1868 925 L1869 931 L1873 939"/>
<path d="M1900 994 L1896 989 L1891 968 L1888 962 L1883 958 L1879 959"/>
<path d="M2291 949 L2301 954 L2315 954 L2320 952 L2328 944 L2328 932"/>
<path d="M2389 1508 L2384 1488"/>
<path d="M2032 860 L2043 859 L2054 869 L2064 869"/>
<path d="M2048 1129 L2024 1145 L2024 1166 L2027 1171"/>
<path d="M1469 1567 L1459 1566 L1454 1563 L1448 1556 L1448 1550 L1451 1545 L1456 1543 L1462 1545"/>
<path d="M1692 978 L1687 987 L1687 997 L1690 1001"/>
<path d="M2209 1159 L2211 1167 L2216 1171 L2220 1171 L2227 1168 L2231 1164 L2233 1156"/>
<path d="M2102 1211 L2104 1202 L2102 1197 L2096 1190"/>
<path d="M2541 1340 L2534 1332 L2531 1325 L2534 1311"/>
<path d="M2152 1404 L2153 1408 L2163 1415 L2168 1421 L2169 1433 L2166 1436"/>
<path d="M2133 1484 L2131 1481 L2131 1476 L2135 1472 L2139 1471 L2142 1467"/>
<path d="M1559 1292 L1562 1278 L1571 1259 L1576 1254 L1578 1254"/>
<path d="M2313 1164 L2320 1175 L2320 1179 L2317 1183 L2310 1185"/>
<path d="M1976 1621 L1983 1627 L1993 1640"/>
<path d="M2148 1166 L2149 1163 L2156 1158 L2163 1159 L2168 1165 L2168 1178 L2164 1182 L2154 1183 L2151 1180 L2150 1170"/>
<path d="M2148 1166 L2143 1168 L2139 1173 L2139 1185"/>
<path d="M2092 1114 L2113 1114"/>
<path d="M2097 1098 L2099 1095 L2105 1092 L2109 1092 L2121 1101"/>
<path d="M2457 1244 L2457 1262 L2463 1279"/>
<path d="M1618 1396 L1611 1393 L1608 1390 L1608 1379 L1604 1377"/>
<path d="M1330 1271 L1332 1269 L1337 1268 L1349 1269 L1355 1274 L1358 1285"/>
<path d="M1556 1245 L1555 1259 L1552 1267 L1549 1270"/>
<path d="M2106 1077 L2084 1084"/>
<path d="M1533 1218 L1539 1230 L1539 1239 L1541 1245"/>
<path d="M1609 1324 L1608 1306 L1604 1297 L1600 1295"/>
<path d="M2333 1501 L2338 1500 L2345 1507 L2349 1521 L2348 1531"/>
<path d="M2411 1195 L2395 1211 L2385 1217"/>
<path d="M2215 1470 L2221 1470 L2234 1488"/>
<path d="M2134 1287 L2133 1303 L2127 1310"/>
<path d="M2400 1366 L2389 1366 L2385 1363 L2377 1361 L2373 1345"/>
<path d="M2365 1215 L2375 1215 L2384 1217"/>
<path d="M1469 1312 L1478 1318 L1492 1318 L1499 1316"/>
<path d="M2313 1062 L2317 1068 L2321 1081"/>
<path d="M1429 1035 L1427 1043 L1428 1065"/>
<path d="M1558 1179 L1555 1188 L1551 1192 L1543 1192 L1539 1187 L1538 1178"/>
<path d="M2240 1224 L2238 1215 L2233 1205"/>
<path d="M1772 977 L1770 975 L1768 967 L1769 958 L1774 948 L1787 929"/>
<path d="M1664 1026 L1660 1032 L1660 1037 L1664 1045"/>
<path d="M2322 1265 L2329 1258 L2335 1243 L2347 1231"/>
<path d="M1646 1379 L1649 1386 L1647 1394 L1643 1401"/>
<path d="M1759 1082 L1757 1073 L1754 1068 L1743 1060 L1737 1054 L1737 1052"/>
<path d="M2519 1345 L2518 1326 L2511 1318 L2510 1312 L2506 1307"/>
<path d="M1590 1387 L1582 1387 L1573 1382 L1573 1378 L1569 1369 L1570 1365"/>
<path d="M1515 1229 L1493 1222"/>
<path d="M1320 1253 L1330 1251 L1354 1254"/>
<path d="M2095 1056 L2087 1057 L2073 1069"/>
<path d="M2246 1036 L2240 1044 L2237 1051 L2238 1070"/>
<path d="M2295 1188 L2280 1180 L2271 1181 L2263 1192 L2263 1200 L2268 1211 L2271 1213 L2277 1213 L2283 1209 L2281 1199"/>
<path d="M1597 1098 L1596 1114 L1598 1120"/>
<path d="M1681 1049 L1696 1058 L1707 1059 L1711 1057"/>
<path d="M1866 975 L1872 982 L1877 997 L1879 1010"/>
<path d="M1955 946 L1957 955 L1966 970"/>
<path d="M2062 1582 L2066 1578 L2062 1562 L2065 1555"/>
<path d="M1436 1289 L1457 1288 L1469 1296"/>
<path d="M2105 991 L2101 1005 L2102 1014 L2105 1019"/>
<path d="M2330 1418 L2340 1428 L2351 1419 L2354 1410"/>
<path d="M1459 1526 L1460 1520 L1465 1515 L1480 1521 L1490 1518 L1501 1518 L1504 1521 L1503 1527 L1497 1532"/>
<path d="M2116 1134 L2113 1114"/>
<path d="M1469 1366 L1485 1366 L1493 1362"/>
<path d="M1569 1354 L1572 1343 L1571 1332"/>
<path d="M2041 938 L2020 938 L2017 941"/>
<path d="M1765 1041 L1769 1041 L1772 1038 L1772 1028 L1769 1025 L1765 1024 L1753 1024"/>
<path d="M2193 1281 L2209 1289 L2218 1298"/>
<path d="M2384 1306 L2383 1314 L2395 1328"/>
<path d="M1583 1025 L1580 1029 L1574 1032 L1571 1032 L1568 1028 L1568 1021 L1570 1015 L1575 1010 L1578 1010 L1581 1013 L1583 1023"/>
<path d="M1511 1332 L1512 1342 L1519 1350 L1524 1352"/>
<path d="M1460 1010 L1468 1008 L1473 1002 L1477 992 L1484 987"/>
<path d="M2175 1402 L2159 1398 L2156 1399"/>
<path d="M2309 1238 L2308 1242 L2313 1255 L2321 1265"/>
<path d="M2141 1352 L2148 1339 L2153 1337 L2172 1336 L2176 1333 L2178 1326"/>
<path d="M2121 935 L2112 965 L2113 971 L2116 974 L2124 971 L2131 964 L2132 955 L2127 949"/>
<path d="M2200 992 L2192 992 L2189 995 L2187 1002 L2182 1010"/>
<path d="M2200 992 L2195 1012 L2195 1021"/>
<path d="M2443 1178 L2439 1177 L2429 1168 L2427 1163 L2426 1147"/>
<path d="M2043 1615 L2040 1615 L2035 1610 L2029 1600 L2023 1600 L2019 1610"/>
<path d="M2362 1317 L2365 1317 L2374 1325 L2385 1341 L2390 1342"/>
<path d="M1940 1124 L1938 1119 L1938 1113 L1944 1106 L1950 1103"/>
<path d="M1608 1243 L1604 1251 L1603 1263"/>
<path d="M2175 861 L2176 864 L2171 873 L2171 881 L2169 885"/>
<path d="M1753 1094 L1756 1097 L1763 1099 L1772 1095 L1775 1092"/>
<path d="M1308 1308 L1305 1301 L1306 1292 L1312 1284 L1322 1280"/>
<path d="M1679 939 L1674 928 L1676 912"/>
<path d="M1679 939 L1686 937 L1710 937"/>
<path d="M2388 1306 L2402 1319 L2408 1320 L2414 1316"/>
<path d="M1567 1299 L1566 1308 L1564 1311 L1563 1327"/>
<path d="M1881 913 L1881 916 L1885 920 L1907 930 L1913 936 L1916 943"/>
<path d="M1463 1501 L1489 1503"/>
<path d="M1525 1480 L1537 1478 L1544 1475"/>
<path d="M1727 1192 L1743 1192 L1754 1187 L1761 1178 L1762 1168"/>
<path d="M1655 1365 L1665 1351 L1672 1348 L1685 1350"/>
<path d="M1655 1365 L1657 1376 L1663 1386"/>
<path d="M1727 1222 L1730 1218 L1731 1211 L1726 1203"/>
<path d="M2441 1415 L2462 1419"/>
<path d="M1518 1422 L1519 1403 L1517 1397"/>
<path d="M2170 1076 L2173 1090 L2173 1098"/>
<path d="M1468 1365 L1460 1354 L1460 1343 L1470 1333 L1474 1333 L1481 1330 L1488 1330 L1493 1332 L1499 1341 L1501 1352"/>
<path d="M1618 976 L1611 984 L1600 989"/>
<path d="M2158 1454 L2156 1465 L2157 1471 L2155 1479"/>
<path d="M2281 975 L2275 978 L2272 977 L2268 973 L2267 967 L2273 960 L2277 958 L2288 957"/>
<path d="M2164 1119 L2167 1114 L2167 1100"/>
<path d="M1600 1493 L1606 1495 L1612 1494 L1618 1487 L1620 1479"/>
<path d="M2274 1111 L2272 1102 L2272 1092 L2274 1083 L2277 1080"/>
<path d="M1936 869 L1937 860 L1934 855 L1932 847"/>
<path d="M1778 1063 L1767 1059 L1761 1051"/>
<path d="M2317 976 L2326 969 L2337 957"/>
<path d="M1641 1120 L1640 1127 L1637 1133 L1631 1137 L1621 1135 L1616 1128"/>
<path d="M1428 1265 L1424 1269 L1423 1275 L1419 1280 L1410 1281 L1405 1279"/>
<path d="M1377 1107 L1377 1105 L1371 1100 L1365 1100 L1362 1104 L1363 1116 L1368 1126 L1371 1127"/>
<path d="M2327 1220 L2318 1211 L2314 1200"/>
<path d="M2196 876 L2198 878 L2197 889 L2194 894 L2187 896"/>
<path d="M1885 858 L1887 852 L1894 844 L1911 844"/>
<path d="M1885 858 L1882 860 L1880 864 L1878 879"/>
<path d="M1491 1222 L1480 1228 L1472 1226"/>
<path d="M2324 1285 L2327 1283 L2344 1281"/>
<path d="M2002 886 L2018 877 L2030 876"/>
<path d="M2295 1189 L2297 1207 L2303 1212 L2306 1217 L2307 1228"/>
<path d="M2283 1275 L2280 1280 L2282 1297"/>
<path d="M2157 1079 L2150 1075 L2149 1070 L2144 1064 L2138 1061 L2126 1060"/>
<path d="M1650 1014 L1652 1020 L1651 1037 L1646 1045"/>
<path d="M2349 1533 L2357 1534 L2361 1530 L2363 1523"/>
<path d="M2062 1583 L2063 1591 L2074 1602"/>
<path d="M1441 1476 L1449 1479 L1455 1478 L1461 1470 L1462 1460"/>
<path d="M1823 1026 L1817 1030 L1816 1038 L1822 1045 L1826 1047 L1832 1047 L1836 1044 L1840 1034 L1841 1018"/>
<path d="M2116 1135 L2121 1138 L2134 1139 L2139 1143"/>
<path d="M2059 848 L2058 840 L2049 827"/>
<path d="M1727 997 L1709 997 L1705 993"/>
<path d="M2062 1162 L2064 1168 L2064 1176 L2060 1181 L2053 1180 L2045 1176"/>
<path d="M2023 1090 L2012 1091 L2007 1096 L2007 1104"/>
<path d="M2298 1320 L2296 1332 L2294 1334 L2284 1335"/>
<path d="M1486 1554 L1479 1550 L1475 1536 L1472 1533 L1459 1527"/>
<path d="M2487 1399 L2496 1399 L2502 1401 L2512 1411"/>
<path d="M2002 1142 L2012 1144 L2012 1160 L2010 1169"/>
<path d="M1468 1249 L1457 1261 L1451 1260 L1444 1254"/>
<path d="M2018 947 L2025 951 L2036 963"/>
<path d="M1460 1450 L1457 1447 L1454 1440 L1449 1436 L1427 1437"/>
<path d="M2377 1060 L2362 1060 L2357 1066 L2358 1079"/>
<path d="M1745 1132 L1741 1130 L1733 1121 L1732 1112"/>
<path d="M2503 1329 L2507 1337 L2506 1348"/>
<path d="M2159 1518 L2165 1520 L2168 1525 L2166 1541"/>
<path d="M2068 957 L2068 949 L2070 944 L2078 939 L2082 939"/>
<path d="M2355 1265 L2345 1256 L2345 1253 L2354 1244 L2365 1242"/>
<path d="M2045 1086 L2044 1060"/>
<path d="M2107 1491 L2116 1484 L2121 1468 L2121 1462 L2125 1457 L2127 1447 L2129 1444"/>
<path d="M1661 1134 L1663 1132 L1674 1132 L1681 1135"/>
<path d="M2087 978 L2087 1011 L2085 1019"/>
<path d="M2257 1394 L2249 1398 L2244 1398 L2238 1395"/>
<path d="M1603 1046 L1600 1038 L1598 1025"/>
<path d="M1665 1159 L1662 1153 L1661 1135"/>
<path d="M2492 1385 L2506 1390 L2514 1391 L2523 1388"/>
<path d="M2452 1146 L2443 1147 L2438 1151 L2438 1154 L2445 1163 L2450 1165"/>
<path d="M1647 1116 L1647 1104 L1642 1096"/>
<path d="M2023 835 L2021 850 L2022 856"/>
<path d="M1511 1468 L1506 1462 L1495 1458 L1490 1458 L1481 1463 L1476 1469 L1476 1474 L1478 1476 L1488 1474 L1494 1480"/>
<path d="M1522 1483 L1517 1499 L1517 1508"/>
<path d="M2242 1111 L2241 1123 L2235 1130 L2224 1133 L2218 1133 L2211 1124"/>
<path d="M2161 958 L2159 949 L2160 939"/>
<path d="M1561 1465 L1559 1465 L1555 1461 L1552 1453 L1543 1443 L1534 1443"/>
<path d="M2224 1300 L2228 1307 L2227 1320 L2228 1329 L2231 1335"/>
<path d="M1988 1702 L1989 1693 L1987 1690 L1983 1674 L1983 1665 L1985 1663"/>
<path d="M1598 1231 L1592 1227 L1579 1226 L1566 1233 L1556 1244"/>
<path d="M1610 1325 L1631 1332"/>
<path d="M1851 1041 L1867 1019 L1870 1011"/>
<path d="M1845 1076 L1834 1078 L1826 1078 L1819 1076"/>
<path d="M2187 977 L2187 980 L2177 1000 L2177 1007 L2181 1010"/>
<path d="M1444 1084 L1446 1082 L1456 1082 L1462 1084 L1466 1088 L1466 1100 L1462 1104"/>
<path d="M1640 1197 L1643 1193 L1648 1191 L1652 1196 L1654 1205"/>
<path d="M2377 1067 L2378 1078 L2375 1085 L2366 1093 L2361 1103"/>
<path d="M1834 908 L1827 888"/>
<path d="M2364 1112 L2384 1114 L2390 1119 L2397 1122"/>
<path d="M1680 955 L1698 951 L1710 944"/>
<path d="M2081 1143 L2081 1148 L2087 1156 L2090 1164 L2094 1168"/>
<path d="M2199 1368 L2197 1366 L2191 1366 L2185 1372 L2188 1386"/>
<path d="M2439 1283 L2442 1269 L2441 1262"/>
<path d="M2214 1312 L2212 1312 L2199 1300 L2194 1299"/>
<path d="M2133 1121 L2137 1126 L2140 1126 L2145 1123 L2148 1116"/>
<path d="M2363 1278 L2366 1282 L2378 1284 L2390 1289"/>
<path d="M1625 987 L1618 993 L1613 1000 L1606 1003"/>
<path d="M1620 1197 L1615 1190 L1613 1184 L1610 1160"/>
<path d="M1788 911 L1784 914 L1783 918 L1778 923 L1771 926 L1754 943 L1752 950"/>
<path d="M2256 1532 L2253 1532 L2247 1540 L2247 1547 L2249 1549 L2250 1568 L2253 1578"/>
<path d="M2265 1347 L2262 1337 L2261 1323 L2253 1315 L2256 1306"/>
<path d="M1605 1004 L1604 1012 L1601 1022 L1599 1024"/>
<path d="M1313 1392 L1310 1379 L1313 1368 L1321 1360 L1328 1356 L1332 1356 L1337 1359"/>
<path d="M1965 1046 L1963 1049 L1962 1057 L1969 1064 L1976 1067"/>
<path d="M1745 1133 L1745 1139 L1753 1158"/>
<path d="M1705 1148 L1715 1149 L1722 1153 L1729 1160 L1731 1164 L1731 1170"/>
<path d="M2055 1148 L2048 1160 L2045 1174"/>
<path d="M1462 1500 L1457 1495 L1446 1495 L1420 1487 L1412 1479"/>
<path d="M1923 897 L1923 919"/>
<path d="M1787 1189 L1805 1188 L1808 1191 L1809 1200 L1811 1202"/>
<path d="M2491 1176 L2485 1172 L2482 1166 L2483 1154 L2486 1148"/>
<path d="M1557 1294 L1551 1306 L1538 1316"/>
<path d="M2343 1016 L2340 1014 L2339 1009 L2340 1005 L2345 1002 L2350 995 L2352 979"/>
<path d="M1370 1160 L1379 1166 L1382 1166 L1389 1170"/>
<path d="M1762 924 L1760 924 L1758 921 L1770 908 L1772 901 L1771 895 L1766 890 L1760 887 L1752 887"/>
<path d="M1537 1177 L1529 1178 L1526 1185 L1527 1192 L1534 1207"/>
<path d="M2161 1568 L2147 1568 L2140 1572 L2134 1580 L2130 1598"/>
<path d="M1690 1012 L1701 1027 L1707 1030 L1721 1030"/>
<path d="M1516 1229 L1525 1242 L1523 1248 L1515 1250 L1502 1244 L1489 1243"/>
<path d="M2217 1071 L2218 1048"/>
<path d="M1609 1151 L1607 1145 L1594 1129"/>
<path d="M2344 1081 L2344 1059 L2342 1057"/>
<path d="M2282 1394 L2283 1379 L2287 1365"/>
<path d="M1958 1025 L1959 1033 L1965 1045"/>
<path d="M1441 1210 L1448 1207 L1452 1207 L1455 1210 L1455 1221 L1453 1224"/>
<path d="M2155 977 L2152 981 L2139 1012 L2131 1021 L2128 1027"/>
<path d="M1451 1424 L1446 1429 L1439 1427 L1432 1422 L1435 1416"/>
<path d="M1764 1259 L1762 1256 L1744 1257"/>
<path d="M1949 863 L1948 857 L1940 841"/>
<path d="M2135 1286 L2154 1278"/>
<path d="M2270 1163 L2294 1167"/>
<path d="M1922 920 L1912 918 L1909 916 L1902 916"/>
<path d="M1512 1479 L1511 1483 L1506 1488 L1499 1491 L1494 1490"/>
<path d="M1904 1041 L1905 1036 L1911 1029 L1917 1030 L1922 1040 L1921 1047 L1919 1049 L1912 1049 L1907 1046 L1904 1042"/>
<path d="M1642 1424 L1636 1425 L1632 1429 L1631 1432 L1635 1441"/>
<path d="M1736 1051 L1713 1051"/>
<path d="M1916 993 L1921 987 L1922 983 L1920 974 L1916 969"/>
<path d="M2328 1562 L2339 1559 L2345 1559 L2350 1565 L2350 1571 L2348 1574"/>
<path d="M1745 970 L1749 972 L1755 979 L1756 992 L1762 998 L1768 998 L1771 1000"/>
<path d="M2309 1052 L2315 1052 L2321 1055 L2328 1062 L2331 1072 L2331 1078"/>
<path d="M2229 1396 L2223 1402 L2220 1408 L2220 1416 L2226 1425"/>
<path d="M2363 1456 L2360 1461 L2346 1474 L2335 1478 L2329 1478 L2309 1487 L2304 1487"/>
<path d="M1799 940 L1793 942 L1786 953 L1784 960 L1785 974"/>
<path d="M1799 940 L1801 960 L1803 966"/>
<path d="M2401 1367 L2403 1386 L2416 1406"/>
<path d="M1355 1255 L1359 1259 L1366 1262 L1371 1274"/>
<path d="M1942 927 L1940 919 L1940 908 L1942 902 L1948 896 L1957 898 L1969 908"/>
<path d="M2273 1239 L2275 1255 L2279 1264 L2285 1271"/>
<path d="M2086 977 L2075 975 L2063 975 L2060 977 L2059 981 L2055 985"/>
<path d="M1445 1466 L1447 1458 L1446 1454 L1440 1449 L1433 1449 L1427 1452 L1424 1456 L1424 1469 L1429 1476 L1439 1476"/>
<path d="M2328 1220 L2339 1221 L2347 1229"/>
<path d="M1641 1019 L1639 1038 L1640 1044"/>
<path d="M2181 1235 L2187 1239 L2194 1236 L2201 1224 L2201 1216"/>
<path d="M1930 1152 L1924 1145 L1925 1132"/>
<path d="M2182 1011 L2186 1024 L2181 1048 L2182 1056"/>
<path d="M2030 1170 L2034 1166 L2034 1161 L2037 1154 L2043 1148 L2048 1146 L2055 1147"/>
<path d="M2374 1399 L2378 1389 L2389 1388 L2393 1390 L2399 1397 L2399 1408 L2397 1410"/>
<path d="M1939 833 L1948 838 L1960 854"/>
<path d="M1406 1407 L1407 1404 L1413 1398 L1422 1397 L1426 1401 L1429 1412"/>
<path d="M1575 1558 L1572 1560 L1572 1562 L1559 1578 L1556 1585 L1556 1590"/>
<path d="M1905 1179 L1902 1179 L1898 1176 L1899 1157 L1901 1149"/>
<path d="M1577 1113 L1568 1113 L1564 1115 L1565 1126 L1569 1134 L1570 1140 L1573 1142"/>
<path d="M1409 1257 L1405 1278"/>
<path d="M1745 969 L1744 949 L1741 945 L1736 945 L1732 947"/>
<path d="M1962 1081 L1974 1078 L1977 1074 L1976 1067"/>
<path d="M2169 1039 L2172 1036 L2172 1030 L2165 1017 L2165 1005 L2169 992 L2169 987 L2165 985"/>
<path d="M2105 1158 L2101 1149 L2091 1140"/>
<path d="M2105 1158 L2127 1158"/>
<path d="M1520 1107 L1529 1110 L1534 1115 L1535 1119 L1532 1126 L1523 1131 L1511 1131 L1507 1129 L1505 1130"/>
<path d="M1593 1065 L1593 1062 L1587 1051 L1587 1044"/>
<path d="M1855 884 L1858 911"/>
<path d="M2209 961 L2208 949 L2205 941 L2206 939"/>
<path d="M2298 970 L2293 985 L2289 989 L2284 991 L2271 990 L2262 985 L2256 978"/>
<path d="M2180 1231 L2181 1223 L2191 1211"/>
<path d="M1663 1386 L1659 1394 L1660 1402 L1663 1407 L1669 1412 L1678 1412 L1684 1407"/>
<path d="M1982 924 L1980 927 L1980 940 L1982 944"/>
<path d="M1419 1331 L1412 1313 L1409 1310 L1405 1309"/>
<path d="M2021 1586 L2029 1582 L2039 1581 L2044 1585 L2046 1591"/>
<path d="M1986 845 L1990 848 L1998 848 L2004 845 L2009 837 L2010 831 L2008 827"/>
<path d="M1536 1261 L1529 1263 L1510 1263 L1489 1259"/>
<path d="M1579 992 L1588 1008 L1590 1020"/>
<path d="M2091 1115 L2090 1120 L2087 1124 L2077 1124"/>
<path d="M2355 1434 L2357 1443 L2363 1454"/>
<path d="M1638 1066 L1633 1077 L1623 1090"/>
<path d="M2369 1337 L2363 1332 L2357 1332 L2348 1339 L2347 1345"/>
<path d="M2273 1308 L2276 1322 L2284 1335"/>
<path d="M1889 996 L1884 984 L1879 959"/>
<path d="M1624 1010 L1616 1018 L1614 1023 L1616 1035 L1619 1038 L1624 1038 L1627 1034 L1627 1027"/>
<path d="M1416 1543 L1415 1534 L1422 1524 L1431 1521 L1439 1522"/>
<path d="M1900 1024 L1889 1035 L1887 1050"/>
<path d="M1597 1097 L1595 1095 L1592 1095 L1578 1112"/>
<path d="M1675 911 L1668 912 L1659 921 L1659 926 L1662 932 L1661 944"/>
<path d="M2191 1089 L2187 1076 L2188 1068 L2193 1062 L2194 1055"/>
<path d="M1673 1009 L1651 1011"/>
<path d="M2198 1483 L2200 1471 L2197 1464 L2186 1455 L2177 1457 L2168 1466 L2169 1478 L2171 1483 L2178 1490 L2184 1492"/>
<path d="M1712 1051 L1707 1046 L1697 1041 L1687 1028 L1683 1028 L1678 1033"/>
<path d="M2346 1454 L2348 1449 L2343 1442 L2325 1442 L2323 1440 L2319 1423 L2318 1408"/>
<path d="M1676 1061 L1667 1064 L1653 1062"/>
<path d="M2252 1212 L2247 1205 L2245 1184"/>
<path d="M1995 1683 L2000 1678 L2005 1676 L2014 1680"/>
<path d="M2355 1433 L2366 1422 L2370 1415"/>
<path d="M2264 1560 L2262 1539 L2258 1532"/>
<path d="M1829 1188 L1826 1180 L1826 1175 L1831 1169"/>
<path d="M1446 1111 L1443 1114 L1442 1122 L1446 1134 L1449 1136 L1455 1135"/>
<path d="M2464 1430 L2468 1434 L2476 1451"/>
<path d="M2481 1440 L2476 1433 L2476 1424 L2479 1420 L2482 1419"/>
<path d="M1637 1373 L1636 1357 L1634 1351 L1629 1347"/>
<path d="M1817 919 L1817 925 L1812 938 L1812 942 L1818 960"/>
<path d="M2170 1367 L2167 1374 L2164 1377 L2154 1380"/>
<path d="M2466 1162 L2469 1146 L2467 1141 L2468 1132 L2478 1119 L2479 1109"/>
<path d="M1517 1508 L1522 1528 L1521 1534 L1517 1539"/>
<path d="M2500 1414 L2495 1412 L2488 1412 L2484 1415 L2483 1418"/>
<path d="M2274 1238 L2277 1235 L2292 1237 L2298 1245 L2303 1262"/>
<path d="M1536 1043 L1528 1050 L1516 1049 L1511 1047"/>
<path d="M1395 1307 L1401 1301 L1409 1296 L1434 1289"/>
<path d="M1878 1072 L1878 1063 L1880 1056 L1884 1051 L1887 1050"/>
<path d="M2010 1170 L2013 1178 L2013 1183 L2022 1184"/>
<path d="M1938 947 L1941 960 L1952 974 L1955 981"/>
<path d="M1932 982 L1931 993 L1928 997 L1927 1002"/>
<path d="M1729 983 L1709 989 L1706 992"/>
<path d="M2387 1058 L2389 1060 L2391 1072 L2400 1087 L2403 1089 L2406 1088"/>
<path d="M1909 1149 L1916 1161 L1923 1166"/>
<path d="M2257 1247 L2262 1253 L2262 1265 L2266 1274 L2272 1279 L2275 1279"/>
<path d="M1541 1144 L1538 1143 L1535 1145 L1527 1145 L1516 1150 L1507 1150"/>
<path d="M1820 1063 L1841 1064 L1846 1072"/>
<path d="M2208 1594 L2212 1602 L2212 1607 L2215 1613 L2215 1619"/>
<path d="M2321 1499 L2320 1520"/>
<path d="M1919 950 L1927 963 L1932 980"/>
<path d="M2015 924 L2020 921 L2024 921 L2039 916 L2046 905"/>
<path d="M1334 1338 L1336 1332 L1345 1319"/>
<path d="M2070 1069 L2065 1074 L2059 1085 L2051 1093"/>
<path d="M1977 860 L1970 851 L1968 841"/>
<path d="M1539 1394 L1533 1400 L1532 1403 L1532 1422"/>
<path d="M2105 941 L2087 955 L2077 958 L2069 958"/>
<path d="M2381 1466 L2384 1463 L2384 1454 L2382 1450 L2375 1445"/>
<path d="M1704 1247 L1716 1244 L1730 1245 L1737 1249 L1743 1256"/>
<path d="M1381 1241 L1399 1238 L1408 1239"/>
<path d="M1550 1130 L1548 1102 L1542 1093 L1535 1091"/>
<path d="M2490 1201 L2476 1202 L2473 1198 L2471 1198 L2468 1195 L2463 1184 L2464 1179"/>
<path d="M1993 984 L1994 979 L2001 972 L2019 970"/>
<path d="M2128 1249 L2142 1249 L2156 1245"/>
<path d="M1452 1423 L1450 1401 L1455 1391"/>
<path d="M1536 1538 L1550 1542 L1559 1536"/>
<path d="M1564 978 L1555 983 L1546 993 L1541 996"/>
<path d="M1323 1396 L1332 1392 L1337 1387 L1342 1377"/>
<path d="M2206 1046 L2207 1025 L2211 1012 L2217 1005"/>
<path d="M1391 1400 L1391 1412 L1394 1419 L1398 1423 L1406 1423 L1414 1418"/>
<path d="M2379 1028 L2382 1033 L2382 1036 L2380 1041 L2376 1045 L2367 1048 L2357 1047"/>
<path d="M1856 1682 L1857 1675 L1862 1663 L1861 1651"/>
<path d="M1443 1274 L1460 1274 L1480 1282"/>
<path d="M1530 1471 L1527 1461 L1527 1453 L1530 1446 L1533 1444"/>
<path d="M1731 1172 L1735 1177 L1742 1178 L1748 1172 L1753 1159"/>
<path d="M1567 1439 L1586 1444 L1592 1447 L1597 1453"/>
<path d="M1757 1229 L1758 1224 L1756 1220 L1752 1217 L1746 1219 L1740 1225 L1740 1233 L1748 1241"/>
<path d="M1583 1086 L1583 1081 L1580 1077 L1579 1070 L1571 1062 L1543 1061"/>
<path d="M1385 1497 L1390 1491 L1401 1488 L1408 1493 L1409 1504"/>
<path d="M1765 1205 L1764 1186"/>
<path d="M2417 1255 L2413 1253 L2408 1253 L2403 1250 L2395 1251"/>
<path d="M1597 1453 L1585 1468 L1579 1479 L1579 1491 L1584 1503"/>
<path d="M1870 1049 L1870 1046 L1881 1027 L1884 1013"/>
<path d="M2223 1033 L2228 1031 L2236 1021 L2241 1018 L2245 1018"/>
<path d="M2224 1298 L2223 1291 L2215 1281 L2212 1274"/>
<path d="M2268 1458 L2269 1449 L2267 1445 L2265 1431 L2271 1424 L2277 1423 L2283 1430 L2283 1444 L2281 1452"/>
<path d="M2445 1099 L2439 1099 L2432 1104 L2432 1108 L2448 1127"/>
<path d="M2293 1414 L2296 1434 L2299 1441"/>
<path d="M2317 1135 L2315 1145 L2313 1147 L2303 1147"/>
<path d="M1731 1111 L1727 1109 L1723 1104 L1723 1094"/>
<path d="M1815 890 L1823 907 L1823 912"/>
<path d="M1477 1178 L1469 1163 L1469 1160 L1462 1154"/>
<path d="M1319 1208 L1322 1204 L1326 1193 L1330 1188 L1339 1188 L1343 1191 L1344 1206 L1339 1212 L1337 1218 L1338 1233"/>
<path d="M1690 1295 L1688 1282 L1689 1276"/>
<path d="M1958 1024 L1963 1021 L1982 1022 L1986 1024 L1997 1035"/>
<path d="M2107 990 L2124 993 L2137 981 L2144 970 L2146 961 L2146 952 L2142 941 L2133 932"/>
<path d="M2408 1479 L2412 1474 L2429 1473 L2432 1475"/>
<path d="M1630 1165 L1625 1167 L1621 1172 L1621 1176 L1625 1180 L1637 1180 L1643 1177 L1649 1169"/>
<path d="M1305 1353 L1313 1351 L1328 1340"/>
<path d="M1579 1184 L1574 1183 L1569 1179 L1559 1178"/>
<path d="M2081 1721 L2081 1713 L2076 1702"/>
<path d="M1426 1436 L1420 1433 L1407 1438 L1400 1438"/>
<path d="M1391 1383 L1388 1373 L1391 1358 L1397 1351 L1406 1350 L1408 1352"/>
<path d="M2049 1128 L2061 1116 L2064 1107 L2068 1103 L2073 1101"/>
<path d="M2307 1550 L2304 1548 L2309 1536 L2310 1523"/>
<path d="M2454 1084 L2454 1087 L2465 1097 L2465 1105 L2456 1117 L2456 1119 L2448 1127"/>
<path d="M1492 1221 L1489 1208 L1482 1202"/>
<path d="M1898 1008 L1903 1011 L1914 1013 L1922 1017 L1931 1026 L1935 1037 L1934 1053"/>
<path d="M1859 974 L1858 983 L1861 990 L1862 1002"/>
<path d="M2227 1186 L2217 1184 L2206 1185"/>
<path d="M1730 1171 L1713 1169 L1707 1162"/>
<path d="M1495 1425 L1488 1427 L1478 1426 L1469 1422 L1463 1415 L1462 1405 L1464 1399 L1469 1393 L1479 1387"/>
<path d="M2198 1139 L2204 1145 L2216 1151 L2232 1155"/>
<path d="M1973 1004 L1947 1003"/>
<path d="M2323 1564 L2321 1567 L2323 1584 L2320 1586"/>
<path d="M1612 1153 L1627 1149 L1642 1150"/>
<path d="M2292 1394 L2304 1383 L2310 1383 L2317 1387"/>
<path d="M1416 1198 L1415 1172"/>
<path d="M1450 1316 L1450 1306 L1447 1302 L1438 1304 L1436 1313 L1430 1317 L1426 1316 L1420 1309 L1418 1309"/>
<path d="M1450 1316 L1462 1317 L1466 1316 L1468 1312"/>
<path d="M1721 1223 L1717 1227 L1706 1227 L1700 1220 L1696 1211 L1696 1206 L1699 1204"/>
<path d="M2155 1141 L2157 1143 L2166 1144 L2171 1139 L2172 1136 L2165 1123"/>
<path d="M2268 948 L2265 949 L2256 958 L2254 967 L2255 977"/>
<path d="M1457 1051 L1453 1046 L1449 1046 L1444 1050 L1443 1056 L1452 1064 L1470 1063 L1474 1061"/>
<path d="M1330 1415 L1339 1407 L1352 1402 L1357 1402 L1362 1405"/>
<path d="M1407 1073 L1412 1070 L1414 1065 L1414 1038 L1416 1035"/>
<path d="M1579 1254 L1579 1268 L1582 1281"/>
<path d="M1329 1272 L1328 1277 L1332 1293"/>
<path d="M1712 1128 L1727 1136 L1733 1142 L1737 1152"/>
<path d="M1703 1248 L1704 1257 L1710 1265 L1715 1266 L1720 1259 L1719 1255"/>
<path d="M1577 992 L1563 999 L1557 1005 L1557 1009"/>
<path d="M2491 1239 L2493 1236 L2497 1235 L2505 1241 L2507 1249 L2502 1256 L2494 1258 L2487 1253 L2485 1249 L2485 1243"/>
</g>
</svg>
